# xmcd
#
# Track frame offsets: 
#        150
#        20231
#        37332
#        60790
#        76779
#        98544
#        120809
#        143616
#        169699
#        195926
#        215711
#        232879
#        252876
#        268934
#        289276
#        305913
#        323913
#        341455
#
# Disc length: 4757 seconds
#
# Revision: 0
# Processed by: cddbd v1.5.2PL0 Copyright (c) Steve Scherf et al.
# Submitted via: ExactAudioCopy v1.3
#
DISCID=f9129312
DTITLE=Various Artist - Akella Presents - vol. 181 - Various Styles O
DTITLE=f Blues  CD2
DYEAR=2019
DGENRE=Blues
TTITLE0=Dustin Douglas and The Electric Gentlemen - A Little Bit
TTITLE1=Christone Kingfish Ingram - Fresh Out
TTITLE2=Steve Freund - Worried About That Gal
TTITLE3=Jerry Forney - Sparrow In The Rain
TTITLE4=Joe Zook and Blues Deluxe - Wait and See
TTITLE5=Chris Turner - Business, Banks and Lawyers
TTITLE6=Tullie Brae - Mississippi Rain
TTITLE7=Wily Bo Walker and E D Brayshaw - Loan Me a Dime
TTITLE8=Scott Ramminger - Rise Up
TTITLE9=The Deacons - One Way Or Another
TTITLE10=Krissy Matthews - The Girl That Lied
TTITLE11=Danny T and The Stealing Thunder Band - Cleaning Man Blues
TTITLE12=Uni Debess - If I Had Possession Over Judgment Day
TTITLE13=Peer Gynt - Island Of Gold
TTITLE14=John Illsley - Picking Up The Pieces
TTITLE15=Blue Attitude - Traveller
TTITLE16=Tom Euler - Tough Guy
TTITLE17=30 Music Street - Never Say Good Bye (feat. Michael Kitian)
EXTD=
EXTT0=
EXTT1=
EXTT2=
EXTT3=
EXTT4=
EXTT5=
EXTT6=
EXTT7=
EXTT8=
EXTT9=
EXTT10=
EXTT11=
EXTT12=
EXTT13=
EXTT14=
EXTT15=
EXTT16=
EXTT17=
PLAYORDER=
